<?xml version="1.0" standalone="no"?>
<!DOCTYPE svg PUBLIC "-//W3C//DTD SVG 20010904//EN"
 "http://www.w3.org/TR/2001/REC-SVG-20010904/DTD/svg10.dtd">
<svg version="1.0" xmlns="http://www.w3.org/2000/svg"
 width="1024.000000pt" height="1024.000000pt" viewBox="0 0 1024.000000 1024.000000"
 preserveAspectRatio="xMidYMid meet">
<metadata>
Created by potrace 1.16, written by Peter Selinger 2001-2019
</metadata>
<g transform="translate(0.000000,1024.000000) scale(0.100000,-0.100000)"
fill="#000000" stroke="none">
<path d="M7524 5575 c-372 -55 -693 -233 -889 -494 -171 -226 -249 -469 -248
-771 2 -608 278 -1009 912 -1325 122 -60 175 -85 511 -230 512 -222 652 -345
667 -591 12 -185 -82 -338 -262 -424 -114 -55 -181 -70 -336 -77 -250 -11
-438 37 -619 156 -115 75 -205 174 -372 403 -12 16 -48 -2 -398 -206 -211
-123 -386 -228 -387 -233 -5 -13 98 -182 164 -270 118 -157 311 -330 488 -435
214 -128 467 -214 750 -255 149 -21 516 -24 650 -4 406 59 708 194 931 416
265 264 383 609 353 1037 -18 263 -87 473 -215 656 -202 289 -508 492 -1174
778 -560 240 -681 336 -709 563 -29 229 91 408 312 467 77 20 229 18 321 -6
104 -26 167 -62 252 -143 61 -57 96 -102 179 -231 8 -13 69 23 374 219 200
129 369 239 374 244 7 7 -16 48 -66 123 -259 387 -573 580 -1037 637 -114 15
-414 12 -526 -4z"/>
<path d="M4610 3833 c0 -1628 -1 -1712 -19 -1798 -50 -242 -173 -348 -431
-371 -267 -23 -467 110 -646 433 -16 29 -33 53 -38 53 -17 0 -776 -464 -776
-475 0 -19 115 -210 173 -287 75 -100 244 -260 342 -326 291 -194 672 -284
1072 -253 734 56 1149 424 1270 1126 16 92 17 248 20 1853 l4 1752 -486 0
-485 0 0 -1707z"/>
</g>
</svg>
