<?xml version="1.0" standalone="no"?>
<!DOCTYPE svg PUBLIC "-//W3C//DTD SVG 20010904//EN"
 "http://www.w3.org/TR/2001/REC-SVG-20010904/DTD/svg10.dtd">
<svg version="1.0" xmlns="http://www.w3.org/2000/svg"
 width="452.000000pt" height="452.000000pt" viewBox="0 0 452.000000 452.000000"
 preserveAspectRatio="xMidYMid meet">
<metadata>
Created by potrace 1.16, written by Peter Selinger 2001-2019
</metadata>
<g transform="translate(0.000000,452.000000) scale(0.100000,-0.100000)"
fill="#000000" stroke="none">
<path d="M2023 4136 c-132 -25 -251 -74 -372 -153 -83 -54 -258 -235 -323
-333 -307 -465 -382 -1097 -197 -1655 60 -180 163 -378 255 -488 20 -24 24
-40 24 -95 0 -109 62 -211 156 -258 54 -26 203 -27 255 -1 48 24 106 82 131
132 30 57 35 158 13 226 -40 119 -168 199 -296 185 l-60 -6 -56 87 c-274 420
-305 1068 -74 1548 162 337 411 527 691 528 102 0 175 -19 284 -76 96 -50 221
-165 295 -272 65 -93 152 -274 181 -376 l22 -76 55 -17 c30 -10 102 -37 160
-61 59 -25 108 -43 109 -42 6 8 -44 213 -77 312 -153 460 -461 786 -832 879
-93 23 -255 29 -344 12z"/>
<path d="M1893 3006 c-116 -38 -187 -125 -199 -244 -16 -149 72 -272 219 -308
52 -13 74 -14 119 -5 71 15 139 58 177 113 17 24 35 49 41 56 7 8 45 12 119
12 740 0 1545 -668 1578 -1310 7 -127 -17 -237 -72 -335 -125 -224 -418 -346
-754 -314 -109 10 -246 37 -319 63 l-44 16 -68 -59 c-38 -33 -96 -78 -129
-102 -34 -24 -61 -46 -61 -49 0 -19 247 -103 379 -130 400 -81 750 -27 1006
155 467 333 472 1000 11 1588 -72 93 -251 270 -341 338 -273 207 -567 342
-885 405 -57 12 -149 18 -278 20 -193 4 -194 4 -225 30 -73 62 -191 87 -274
60z"/>
<path d="M734 2278 c-395 -413 -549 -935 -394 -1338 73 -189 227 -353 420
-450 461 -231 1142 -113 1689 293 227 168 450 427 566 657 31 62 36 66 81 78
86 23 150 83 184 170 72 189 -62 384 -265 385 -111 1 -197 -48 -253 -142 -24
-41 -27 -56 -27 -136 0 -73 4 -98 22 -135 l23 -44 -36 -66 c-217 -397 -645
-721 -1108 -840 -518 -133 -950 38 -1046 415 -61 239 31 549 243 821 l55 70
-19 80 c-11 43 -26 119 -34 168 -8 49 -16 90 -18 93 -2 2 -40 -34 -83 -79z"/>
</g>
</svg>
